<svg xmlns="http://www.w3.org/2000/svg" viewBox="0 0 24 24" fill="none" stroke="currentColor" stroke-width="2" stroke-linecap="round" stroke-linejoin="round">
  <circle cx="12" cy="12" r="3"/>
  <path d="M19.4 15a1.65 1.65 0 0 0 .33 1.82l.06.06a2 2 0 1 1-2.83 2.83l-.06-.06a1.65 1.65 0 0 0-1.82-.33 1.65 1.65 0 0 0-1 1.51V21a2 2 0 1 1-4 0v-.09A1.65 1.65 0 0 0 8 19.4a1.65 1.65 0 0 0-1.82.33l-.06.06a2 2 0 1 1-2.83-2.83l.06-.06A1.65 1.65 0 0 0 3.6 15a1.65 1.65 0 0 0-1.51-1H2a2 2 0 1 1 0-4h.09A1.65 1.65 0 0 0 3.6 8a1.65 1.65 0 0 0-.33-1.82l-.06-.06A2 2 0 1 1 6.04 3.3l.06.06A1.65 1.65 0 0 0 7.92 3a1.65 1.65 0 0 0 1-1.51V1a2 2 0 1 1 4 0v.09A1.65 1.65 0 0 0 14 3.6a1.65 1.65 0 0 0 1.82-.33l.06-.06a2 2 0 1 1 2.83 2.83l-.06.06A1.65 1.65 0 0 0 20.4 8a1.65 1.65 0 0 0 1.51 1H22a2 2 0 1 1 0 4h-.09a1.65 1.65 0 0 0-1.51 1Z"/>
</svg>